<?xml version="1.0" encoding="UTF-8" standalone="no"?>
<!-- Generator: Adobe Illustrator 18.0.0, SVG Export Plug-In . SVG Version: 6.00 Build 0)  -->

<svg
   version="1.1"
   id="Layer_1"
   x="0px"
   y="0px"
   width="1400px"
   height="980px"
   viewBox="0 0 1400 980"
   enable-background="new 0 0 1400 980"
   xml:space="preserve"
   sodipodi:docname="pinetree.svg"
   inkscape:version="1.1 (c68e22c387, 2021-05-23)"
   xmlns:inkscape="http://www.inkscape.org/namespaces/inkscape"
   xmlns:sodipodi="http://sodipodi.sourceforge.net/DTD/sodipodi-0.dtd"
   xmlns="http://www.w3.org/2000/svg"
   xmlns:svg="http://www.w3.org/2000/svg"><defs
   id="defs651" /><sodipodi:namedview
   id="namedview649"
   pagecolor="#ffffff"
   bordercolor="#666666"
   borderopacity="1.0"
   inkscape:pageshadow="2"
   inkscape:pageopacity="0.0"
   inkscape:pagecheckerboard="0"
   showgrid="false"
   inkscape:zoom="0.75571429"
   inkscape:cx="699.33837"
   inkscape:cy="490.26465"
   inkscape:window-width="1920"
   inkscape:window-height="1017"
   inkscape:window-x="447"
   inkscape:window-y="-8"
   inkscape:window-maximized="1"
   inkscape:current-layer="g270" />






<g
   id="g270">
	<g
   id="g250"
   transform="matrix(2.6277284,0,0,2.6277284,-746.51266,-243.1714)">
		<path
   fill="#5d4334"
   d="M 556.3,449.5 C 549,437.9 547,390.6 547,390.6 l -4.5,-255 c -0.6,-3.2 -1.3,-6.4 -1.8,-9.6 -0.9,-2.9 -1.4,-6 -1.6,-9.1 -0.2,-0.2 -0.4,-0.4 -0.5,-0.7 -0.1,-0.2 -0.2,-0.4 -0.2,-0.7 -0.1,2 -0.3,4 -0.5,6 -0.5,10 -1.3,20 -1.3,30 0,0.2 0,0.4 -0.1,0.6 l -4.2,238.6 c 0,0 -2,47.3 -9.3,58.9 -7.4,11.8 -12.1,15.6 -12.1,15.6 h 57.6 c 0,-0.2 -4.7,-3.9 -12.2,-15.7 z"
   id="path232" />
		<g
   id="g248">
			<path
   fill="#246532"
   d="m 541.1,273 -1.4,-1.9 -1.4,1.9 c -12.4,16.6 -64.1,83.6 -114.7,120.6 0,0 3.2,9.3 16.5,5.6 13.3,-3.7 21,-5.2 27.9,6 6.9,11.2 20.6,7.8 28.3,2.2 7.8,-5.6 14.2,8.2 27.4,8.6 11.8,0.3 8,-11.5 14.6,-12.5 v 0.2 c 0.5,-0.1 1,-0.2 1.4,-0.2 0.4,0 0.9,0.1 1.4,0.2 v -0.2 c 6.6,0.9 2.7,12.8 14.6,12.5 13.3,-0.4 19.7,-14.2 27.4,-8.6 7.8,5.6 21.5,8.9 28.3,-2.2 6.9,-11.2 14.6,-9.7 27.9,-6 13.3,3.7 16.5,-5.6 16.5,-5.6 -50.6,-37 -102.3,-104 -114.7,-120.6 z"
   id="path234" />
			<path
   fill="#439042"
   d="m 540.9,251.6 v 0 c -0.6,-0.8 -1.7,-0.8 -2.4,0 v 0 c -10.3,13.7 -52.8,68.9 -94.7,100 -0.7,0.5 -0.9,1.6 -0.4,2.3 1.4,2.1 5.1,5.4 13,3.2 11.1,-3.1 17.6,-4.4 23.3,5 5.7,9.4 17.2,6.5 23.7,1.9 6.5,-4.6 11.8,6.9 22.9,7.2 6.7,0.2 10.8,-4.7 12.9,-7.8 0.7,-1 2.1,-0.9 2.6,0.2 1.4,3.1 4.6,7.7 11.2,7.5 11.1,-0.3 16.4,-11.8 22.9,-7.2 6.5,4.7 18,7.5 23.7,-1.9 5.7,-9.3 12.2,-8.1 23.3,-5 7.9,2.2 11.5,-1.1 13,-3.2 0.5,-0.7 0.3,-1.8 -0.4,-2.3 -41.9,-31 -84.4,-86.1 -94.6,-99.9 z"
   id="path236" />
			<path
   fill="#246532"
   d="m 540.7,219.9 -1,-1.6 -1,1.6 c -9.2,13.9 -47.2,69.9 -84.5,100.8 0,0 2.4,7.8 12.1,4.7 9.8,-3.1 15.5,-4.4 20.5,5 5.1,9.3 15.2,6.5 20.9,1.9 5.7,-4.7 10.4,6.9 20.2,7.2 2.8,0.1 5.1,-0.9 6.9,-2.4 3.2,-2.5 7.5,-2.2 10.6,0.4 1.5,1.2 3.5,2.1 6,2 9.8,-0.3 14.5,-11.8 20.2,-7.2 5.7,4.7 15.8,7.5 20.9,-1.9 5.1,-9.3 10.8,-8.1 20.5,-5 9.8,3.1 12.1,-4.7 12.1,-4.7 -37.2,-30.9 -75.2,-86.9 -84.4,-100.8 z"
   id="path238" />
			<path
   fill="#439042"
   d="m 540.5,171.9 -0.9,-1.6 -0.9,1.6 c -7.6,13.9 -39.2,69.9 -70.1,100.8 0,0 2,7.8 10.1,4.7 8.1,-3.1 12.9,-4.4 17.1,5 4.2,9.3 12.6,6.5 17.3,1.9 4.8,-4.7 8.7,6.9 16.8,7.2 7.2,0.3 4.4,-10.5 19.5,0 6.8,4.8 12,-11.8 16.8,-7.2 4.8,4.7 13.1,7.5 17.3,-1.9 4.2,-9.3 8.9,-8.1 17.1,-5 8.1,3.1 10.1,-4.7 10.1,-4.7 -31,-30.9 -62.6,-87 -70.2,-100.8 z"
   id="path240" />
			<path
   fill="#246532"
   d="m 540.4,154.9 -0.7,-1.4 -0.7,1.4 c -6.3,12.7 -32.4,63.8 -58,92 0,0 1.6,7.1 8.3,4.3 6.7,-2.8 10.6,-4 14.1,4.5 3.5,8.5 10.4,6 14.3,1.7 3.9,-4.3 7.2,6.3 13.9,6.5 6,0.3 4,-8.8 7.4,-9.5 v 0.1 c 0.3,-0.1 0.5,-0.1 0.7,-0.2 0.2,0 0.5,0.1 0.7,0.2 v -0.1 c 3.3,0.7 1.4,9.8 7.4,9.5 6.7,-0.3 9.9,-10.8 13.9,-6.5 3.9,4.3 10.9,6.8 14.3,-1.7 3.4,-8.5 7.4,-7.4 14.1,-4.5 6.7,2.8 8.3,-4.3 8.3,-4.3 -25.6,-28.2 -51.7,-79.4 -58,-92 z"
   id="path242" />
			<path
   fill="#439042"
   d="m 540.3,134.7 -0.6,-1.3 -0.6,1.3 c -5.5,11.2 -28.6,56.2 -51.1,81.1 0,0 1.4,6.3 7.3,3.8 5.9,-2.5 9.4,-3.5 12.4,4 3.1,7.5 9.2,5.3 12.6,1.5 3.5,-3.8 6.3,5.5 12.2,5.8 5.3,0.2 3.6,-7.7 6.5,-8.4 v 0.1 c 0.2,-0.1 0.4,-0.1 0.6,-0.1 0.2,0 0.4,0.1 0.6,0.1 v -0.1 c 2.9,0.6 1.2,8.6 6.5,8.4 5.9,-0.3 8.8,-9.5 12.2,-5.8 3.4,3.7 9.6,6 12.6,-1.5 3.1,-7.5 6.5,-6.5 12.4,-4 5.9,2.5 7.3,-3.8 7.3,-3.8 -22.3,-24.9 -45.4,-70 -50.9,-81.1 z"
   id="path244" />
			<path
   fill="#246532"
   d="m 540.2,94.7 -0.5,-1.4 -0.5,1.4 c -4.4,12.2 -22.8,61.3 -40.8,88.4 0,0 1.1,6.8 5.8,4.1 4.7,-2.7 7.5,-3.8 9.9,4.4 2.4,8.2 7.3,5.7 10.1,1.6 2.8,-4.1 5,6 9.7,6.3 4.2,0.2 2.8,-8.4 5.2,-9.1 v 0.1 c 0.2,-0.1 0.3,-0.1 0.5,-0.1 0.2,0 0.3,0.1 0.5,0.1 v -0.1 c 2.3,0.7 1,9.4 5.2,9.1 4.7,-0.3 7,-10.4 9.7,-6.3 2.8,4.1 7.6,6.6 10.1,-1.6 2.4,-8.2 5.2,-7.1 9.9,-4.4 4.7,2.7 5.8,-4.1 5.8,-4.1 C 562.9,156 544.6,106.8 540.2,94.7 Z"
   id="path246" />
		</g>
	</g>
	<path
   fill="#439042"
   d="m 492.46128,581.93531 c 3.41606,0 6.83211,0.78832 10.51093,0.52554 3.67882,-0.26277 7.35764,-1.31385 11.03646,-2.36494 7.09486,-1.83942 14.71526,-4.20438 22.0729,-3.15328 10.7737,1.57663 10.51091,13.40142 18.65688,18.13133 11.29923,6.30655 18.3941,-4.72991 26.54005,-9.19706 11.03646,-6.30655 15.76639,6.83209 22.07292,13.40141 3.9416,3.94161 23.38678,9.45984 30.48165,-1.8394 0.26277,6.30655 -1.57663,11.03646 -14.45251,13.40142 -4.99267,1.05109 -15.76635,-1.57664 -19.70796,-4.20438 -9.45982,-6.30654 -10.77368,-19.44518 -23.38678,-9.45981 -4.72991,3.94159 -12.08755,10.24814 -18.91964,8.67149 -6.83209,-1.57662 -8.14596,-8.93426 -12.08755,-13.66418 -6.83209,-8.14595 -16.5547,-7.88318 -26.27729,-6.30655 -5.78099,1.0511 -12.08754,2.36497 -18.13133,1.31387 -2.62772,-0.52554 -7.09486,-2.10219 -8.40873,-5.25546 z"
   id="path252"
   style="stroke-width:2.62773" />
	<path
   fill="#439042"
   d="m 539.76039,384.06737 c 2.8905,0 5.51824,0.78832 8.40874,0.26277 2.8905,-0.26277 5.781,-1.0511 8.6715,-1.83941 5.78101,-1.57664 11.56201,-3.41605 17.60578,-2.36497 8.67151,1.31388 8.40873,10.7737 14.71528,14.45252 8.93427,4.99268 14.45252,-3.67882 21.02183,-7.35765 8.67151,-4.99267 12.61309,5.51824 17.60578,10.51092 3.15328,3.15328 18.65688,7.62041 24.43788,-1.57663 0,4.99268 -1.31388,8.6715 -11.56202,10.77368 -3.94159,0.78831 -12.61308,-1.31386 -15.76636,-3.41604 -7.62042,-4.99269 -8.67151,-15.5036 -18.65688,-7.35764 -3.94159,3.15327 -9.45982,8.14594 -14.97805,6.83209 -5.51823,-1.05109 -6.56932,-7.09487 -9.72259,-10.77369 -5.25546,-6.56932 -13.13864,-6.30654 -20.75905,-4.99269 -4.72991,0.78833 -9.7226,1.83942 -14.45252,1.0511 -2.10217,-0.26277 -5.51822,-1.57665 -6.56932,-4.20436 z"
   id="path254"
   style="stroke-width:2.62773" />
	<path
   fill="#439042"
   d="m 593.36606,217.73215 c 2.10218,0 3.9416,0.78832 6.04377,0.26278 2.10218,-0.26278 4.20438,-1.0511 6.30655,-1.83941 4.20436,-1.57664 8.40874,-3.41605 12.6131,-2.36496 6.04378,1.31387 6.04378,10.77369 10.77369,14.45251 6.30655,4.99269 10.51091,-3.67882 15.24081,-7.35764 6.30655,-4.99268 8.93429,5.51824 12.61311,10.51091 2.10218,3.15327 13.40141,7.62041 17.60579,-1.57663 0,4.99268 -0.78833,8.6715 -8.40874,10.77368 -2.89051,0.78832 -8.93429,-1.31385 -11.29924,-3.41605 -5.51822,-4.99267 -6.30654,-15.50359 -13.40141,-7.35763 -2.8905,3.15328 -6.83209,8.14595 -10.7737,6.8321 -3.94159,-1.05109 -4.72991,-7.09487 -6.83209,-10.77369 -3.94159,-6.56932 -9.45981,-6.30656 -14.97805,-4.99269 -3.41605,0.78832 -7.09487,1.83942 -10.51091,1.05109 -1.83941,-0.26277 -4.46713,-1.57664 -4.99268,-4.20437 z"
   id="path256"
   style="stroke-width:2.62773" />
	<path
   fill="#246532"
   d="m 533.45385,461.32257 c 2.89049,0 5.78099,0.78833 8.67151,0.52556 3.15327,-0.26277 6.04377,-1.0511 9.19704,-1.83942 6.04378,-1.57663 12.08754,-3.41605 18.3941,-2.62773 8.93428,1.31388 8.6715,11.03647 15.5036,14.97806 9.19706,5.25545 15.24083,-3.94159 21.81014,-7.62042 9.19705,-4.99268 13.13864,5.781 18.13134,11.03647 3.15327,3.41605 19.44518,7.88319 25.22618,-1.57665 0,5.25547 -1.31386,9.19706 -12.08754,11.03647 -4.20438,0.78832 -13.13864,-1.31386 -16.29192,-3.41606 -7.88318,-5.25544 -8.93428,-16.02913 -19.18242,-7.62041 -3.9416,3.15328 -9.98537,8.40874 -15.50359,7.09487 -5.78101,-1.31385 -6.83209,-7.35764 -9.98538,-11.29922 -5.51823,-6.83211 -13.66418,-6.56933 -21.81014,-5.25547 -4.72991,0.78833 -9.98537,1.83942 -14.97805,1.0511 -2.62773,-0.52554 -6.30655,-2.10219 -7.09487,-4.46715 z"
   id="path258"
   style="stroke-width:2.62773" />
	<path
   fill="#246532"
   d="m 459.08912,670.48977 c 1.05111,9.98535 11.03647,3.67882 19.18243,0.52554 3.67882,-1.31387 7.35764,-3.15327 11.29924,-3.9416 6.30655,-1.31386 14.18974,-0.78832 19.97074,1.57664 11.03646,4.46713 14.18973,17.60578 24.1751,22.59847 3.94159,2.10217 9.19703,2.10217 13.13864,0 7.09486,-3.67882 8.40873,-7.62042 17.343,-7.62042 11.56201,0.26277 19.18243,9.19705 30.21889,9.98536 8.14594,0.52555 10.51091,-6.83209 13.13864,-12.87585 -6.8321,7.88318 -18.39411,3.67882 -24.1751,-2.62773 -9.19706,-9.72259 -16.29193,-10.51091 -28.1167,-4.20438 -7.35764,3.94161 -16.02916,11.56202 -24.43787,5.25546 -8.93429,-6.83209 -15.76638,-20.75905 -27.59115,-23.38678 -7.8832,-1.8394 -14.97806,3.67882 -21.81015,7.35764 -2.89051,1.57665 -17.60578,12.61309 -22.33571,7.35765 z"
   id="path260"
   style="stroke-width:2.62773" />
	<path
   fill="#439042"
   d="m 410.73893,784.53317 c 1.31387,9.98537 14.4525,3.67882 25.2262,0.52556 4.72991,-1.31388 9.72259,-3.15328 14.71528,-3.94161 8.14594,-1.31385 18.3941,-0.78832 26.27728,1.57665 14.4525,4.46713 18.65687,17.60578 31.79551,22.59845 5.25547,2.1022 11.82479,2.1022 17.343,0 9.45982,-3.67882 11.29925,-7.62041 22.59848,-7.62041 15.24082,0.26277 25.22619,9.19706 39.67869,9.98538 10.51091,0.52553 13.66419,-6.83211 17.08023,-12.87588 -9.19704,7.88319 -23.91232,3.67882 -31.7955,-2.62772 -12.08756,-9.72259 -21.2846,-10.51092 -37.05097,-4.20437 -9.7226,3.9416 -21.28461,11.56201 -32.0583,5.25546 -11.82476,-6.83209 -20.75905,-20.75905 -36.26265,-23.38679 -10.51091,-1.83941 -19.70797,3.67882 -28.64223,7.35764 -3.41605,1.83942 -22.86124,12.61311 -28.90502,7.35764 z"
   id="path262"
   style="stroke-width:2.62773" />
	<path
   fill="#246532"
   d="m 561.045,308.65156 c 0.78832,6.83209 7.62041,2.36495 13.13864,0.26277 2.62774,-1.05109 4.99268,-2.10218 7.62041,-2.8905 4.20437,-1.05109 9.72259,-0.52555 13.66419,1.05109 7.62041,3.15327 9.72259,11.82478 16.55468,15.5036 2.62774,1.31387 6.30656,1.31387 8.93429,0 4.72991,-2.62772 5.78099,-5.25546 11.82478,-5.25546 7.88317,0 13.13864,6.30656 20.49628,6.83209 5.51823,0.52555 7.09486,-4.72991 8.93427,-8.93427 -4.72992,5.25545 -12.35032,2.62773 -16.55468,-1.8394 -6.30655,-6.56933 -11.03646,-7.09488 -19.18243,-2.89051 -4.99267,2.62774 -11.03646,7.88318 -16.55469,3.67882 -6.04376,-4.72991 -10.77368,-14.18975 -18.91963,-16.02914 -5.51824,-1.31387 -10.24815,2.36495 -14.71529,4.99267 -1.83941,1.57665 -12.08755,9.19706 -15.24082,5.51824 z"
   id="path264"
   style="stroke-width:2.62773" />
	<path
   fill="#439042"
   d="M 628.57762,195.39645 C 639.35131,154.14112 650.12499,112.62302 660.89867,71.367677 648.81113,105.26538 636.4608,138.90031 624.37326,172.798 c -1.57665,4.20437 -2.8905,8.40873 -2.62773,12.6131 0.26277,4.20436 2.62773,8.6715 6.83209,9.98535 z"
   id="path266"
   style="stroke-width:2.62773" />
	<path
   fill="#439042"
   d="m 649.59945,179.36732 c -0.52555,2.8905 -0.78832,6.04378 0,8.93427 0.78831,2.89051 3.41605,5.51824 6.30655,5.51824 2.62772,0 4.99267,-1.83941 6.56932,-3.94159 4.20436,-5.51823 4.99268,-12.87587 5.781,-19.70797 2.10218,-23.38679 2.10218,-47.29911 0.26277,-70.685888 -7.62042,26.277278 -14.97805,52.817338 -18.91964,79.882938 z"
   id="path268"
   style="stroke-width:2.62773" />
</g>


</svg>
